<?xml version="1.0" encoding="UTF-8"?>
<svg version="1.1" xmlns="http://www.w3.org/2000/svg" xmlns:xlink="http://www.w3.org/1999/xlink">
<defs>

</defs>
<symbol id="i-camera" viewBox="0 0 30 30" fill="none" xmlns="http://www.w3.org/2000/svg"><path d="M19.369 6.042H2.082A2.086 2.086 0 000 8.125v13.71a2.086 2.086 0 002.083 2.083h17.285a2.086 2.086 0 002.084-2.083V8.125a2.086 2.086 0 00-2.084-2.083zM22.84 17.833l7.16 3.91V8.262l-7.16 3.908v5.662z" fill="#000"/></symbol>
<symbol id="i-cross" xmlns="http://www.w3.org/2000/svg" viewBox="0 0 492 492"><path d="M300.188 246L484.14 62.04c5.06-5.064 7.852-11.82 7.86-19.024 0-7.208-2.792-13.972-7.86-19.028L468.02 7.872C462.952 2.796 456.196.016 448.984.016c-7.2 0-13.956 2.78-19.024 7.856L246.008 191.82 62.048 7.872C56.988 2.796 50.228.016 43.02.016c-7.2 0-13.96 2.78-19.02 7.856L7.872 23.988c-10.496 10.496-10.496 27.568 0 38.052L191.828 246 7.872 429.952C2.808 435.024.02 441.78.02 448.984c0 7.204 2.788 13.96 7.852 19.028l16.124 16.116c5.06 5.072 11.824 7.856 19.02 7.856 7.208 0 13.968-2.784 19.028-7.856l183.96-183.952 183.952 183.952c5.068 5.072 11.824 7.856 19.024 7.856h.008c7.204 0 13.96-2.784 19.028-7.856l16.12-16.116c5.06-5.064 7.852-11.824 7.852-19.028 0-7.204-2.792-13.96-7.852-19.028L300.188 246z"/></symbol>
<symbol id="i-github" viewBox="0 0 30 30" fill="none" xmlns="http://www.w3.org/2000/svg"><path d="M14.998.312C6.716.312 0 7.055 0 15.372a15.058 15.058 0 0010.26 14.29c.75.138 1.024-.327 1.024-.726 0-.358-.013-1.305-.02-2.561-4.173.91-5.054-2.02-5.054-2.02-.68-1.74-1.665-2.203-1.665-2.203-1.363-.934.101-.915.101-.915 1.506.107 2.297 1.553 2.297 1.553 1.339 2.3 3.512 1.637 4.367 1.25.135-.973.523-1.636.952-2.013-3.33-.381-6.832-1.673-6.832-7.442 0-1.645.585-2.989 1.545-4.043-.156-.38-.67-1.912.146-3.984 0 0 1.26-.405 4.125 1.543a14.31 14.31 0 013.756-.506c1.273.007 2.557.172 3.755.508C21.622 6.155 22.88 6.56 22.88 6.56c.817 2.074.303 3.604.15 3.984.962 1.054 1.541 2.398 1.541 4.043 0 5.784-3.506 7.057-6.848 7.43.539.465 1.019 1.384 1.019 2.788 0 2.014-.02 3.638-.02 4.131 0 .403.27.872 1.032.724A15.06 15.06 0 0030 15.372C30 7.055 23.284.312 14.998.312z" fill="#000"/></symbol>
<symbol id="i-loader" xmlns="http://www.w3.org/2000/svg" viewBox="0 0 100 100"><path d="M73 50c0-12.7-10.3-23-23-23S27 37.3 27 50m3.9 0c0-10.5 8.5-19.1 19.1-19.1S69.1 39.5 69.1 50"><animateTransform attributeName="transform" attributeType="XML" type="rotate" dur="1s" from="0 50 50" to="360 50 50" repeatCount="indefinite"/></path></symbol>
<symbol id="i-muted-speaker" xmlns="http://www.w3.org/2000/svg" viewBox="0 0 448.075 448.075"><path d="M352.021 16.075c0-6.08-3.52-11.84-8.96-14.4-5.76-2.88-12.16-1.92-16.96 1.92l-141.76 112.96 167.68 167.68V16.075zM443.349 420.747l-416-416c-6.24-6.24-16.384-6.24-22.624 0s-6.24 16.384 0 22.624l100.672 100.704h-9.376c-9.92 0-18.56 4.48-24.32 11.52-4.8 5.44-7.68 12.8-7.68 20.48v128c0 17.6 14.4 32 32 32h74.24l155.84 124.48c2.88 2.24 6.4 3.52 9.92 3.52 2.24 0 4.8-.64 7.04-1.6 5.44-2.56 8.96-8.32 8.96-14.4v-57.376l68.672 68.672c3.136 3.136 7.232 4.704 11.328 4.704s8.192-1.568 11.328-4.672c6.24-6.272 6.24-16.384 0-22.656z"/></symbol>
<symbol id="i-pause" xmlns="http://www.w3.org/2000/svg" viewBox="0 0 512 512"><path d="M181.333 0H74.667c-17.643 0-32 14.357-32 32v448c0 17.643 14.357 32 32 32h106.667c17.643 0 32-14.357 32-32V32c-.001-17.643-14.358-32-32.001-32zM437.333 0H330.667c-17.643 0-32 14.357-32 32v448c0 17.643 14.357 32 32 32h106.667c17.643 0 32-14.357 32-32V32c-.001-17.643-14.358-32-32.001-32z"/></symbol>
<symbol id="i-play" xmlns="http://www.w3.org/2000/svg" viewBox="0 0 320.001 320.001"><path d="M295.84 146.049l-256-144a16.026 16.026 0 00-15.904.128A15.986 15.986 0 0016 16.001v288a15.986 15.986 0 007.936 13.824A16.144 16.144 0 0032 320.001c2.688 0 5.408-.672 7.84-2.048l256-144c5.024-2.848 8.16-8.16 8.16-13.952s-3.136-11.104-8.16-13.952z"/></symbol>
<symbol id="i-speaker" xmlns="http://www.w3.org/2000/svg" viewBox="0 0 480 480"><path d="M278.944 17.577c-5.568-2.656-12.128-1.952-16.928 1.92L106.368 144.009H32c-17.632 0-32 14.368-32 32v128c0 17.664 14.368 32 32 32h74.368l155.616 124.512A16.158 16.158 0 00272 464.009c2.368 0 4.736-.544 6.944-1.6a15.968 15.968 0 009.056-14.4v-416a16.05 16.05 0 00-9.056-14.432zM368.992 126.857c-6.304-6.208-16.416-6.112-22.624.128-6.208 6.304-6.144 16.416.128 22.656C370.688 173.513 384 205.609 384 240.009s-13.312 66.496-37.504 90.368c-6.272 6.176-6.336 16.32-.128 22.624a15.943 15.943 0 0011.36 4.736c4.064 0 8.128-1.536 11.264-4.64C399.328 323.241 416 283.049 416 240.009s-16.672-83.232-47.008-113.152z"/><path d="M414.144 81.769c-6.304-6.24-16.416-6.176-22.656.096-6.208 6.272-6.144 16.416.096 22.624C427.968 140.553 448 188.681 448 240.009s-20.032 99.424-56.416 135.488c-6.24 6.24-6.304 16.384-.096 22.656 3.168 3.136 7.264 4.704 11.36 4.704 4.064 0 8.16-1.536 11.296-4.64C456.64 356.137 480 299.945 480 240.009s-23.36-116.128-65.856-158.24z"/></symbol>
</svg>