<?xml version="1.0" standalone="no"?>
<!DOCTYPE svg PUBLIC "-//W3C//DTD SVG 20010904//EN"
 "http://www.w3.org/TR/2001/REC-SVG-20010904/DTD/svg10.dtd">
<svg version="1.0" xmlns="http://www.w3.org/2000/svg"
 width="700.000000pt" height="700.000000pt" viewBox="0 0 700.000000 700.000000"
 preserveAspectRatio="xMidYMid meet">
<metadata>
Created by potrace 1.11, written by Peter Selinger 2001-2013
</metadata>
<g transform="translate(0.000000,700.000000) scale(0.100000,-0.100000)"
fill="#000000" stroke="none">
<path d="M3439 6740 c-296 -35 -554 -214 -684 -475 -62 -126 -84 -214 -96
-385 -13 -204 -12 -200 -117 -243 -129 -53 -567 -216 -618 -229 -6 -2 -38 33
-71 77 -202 272 -448 395 -762 382 -139 -5 -239 -31 -361 -92 -528 -266 -636
-989 -210 -1416 168 -169 356 -243 564 -223 50 5 138 9 196 9 93 -1 112 -4
163 -27 109 -51 170 -121 258 -291 29 -55 69 -127 90 -159 48 -74 64 -144 46
-196 -12 -34 -95 -167 -260 -418 l-67 -102 -90 29 c-187 58 -356 63 -525 14
-384 -111 -637 -441 -639 -835 -1 -188 49 -352 154 -504 89 -129 203 -225 352
-296 129 -62 205 -81 349 -87 220 -10 342 33 509 178 214 185 334 193 598 37
46 -28 130 -70 186 -94 227 -99 291 -186 264 -362 -10 -65 -9 -81 12 -160 89
-337 283 -546 596 -645 338 -107 646 -25 890 237 184 196 271 432 244 662 -11
102 -28 165 -76 281 -41 98 -44 155 -11 200 46 65 480 513 618 639 113 104
341 305 520 460 14 12 25 10 80 -15 217 -98 434 -122 635 -71 296 76 552 349
621 664 23 105 20 290 -6 391 -63 241 -246 472 -456 576 -125 61 -187 74 -355
73 -129 -1 -158 -5 -262 -32 -64 -17 -156 -47 -204 -67 -48 -19 -93 -35 -98
-35 -6 0 -272 261 -591 580 l-580 580 19 33 c50 86 97 190 118 262 31 108 33
335 4 435 -95 321 -305 540 -601 629 -62 19 -225 43 -265 40 -8 -1 -45 -5 -81
-9z m256 -236 c182 -43 357 -188 437 -362 57 -126 75 -292 43 -417 -52 -205
-212 -387 -405 -463 -82 -32 -135 -42 -235 -42 -190 0 -322 56 -460 195 -139
138 -195 270 -195 460 -1 423 395 728 815 629z m-2354 -891 c191 -66 335 -207
407 -401 33 -89 42 -263 18 -366 -42 -177 -182 -354 -346 -433 -196 -95 -397
-96 -585 -1 -164 83 -294 244 -340 423 -21 80 -21 232 -1 319 21 87 82 205
142 274 53 60 149 132 220 164 149 66 330 74 485 21z m1509 -279 c61 -75 109
-142 107 -148 -5 -11 -465 -726 -474 -736 -2 -2 -115 51 -250 118 l-246 123 5
212 c5 231 10 251 66 299 16 13 139 65 273 115 265 99 403 150 406 152 1 1 52
-60 113 -135z m1785 -764 l590 -590 -70 -140 c-41 -82 -75 -140 -84 -140 -15
0 -645 81 -648 84 -1 0 -9 46 -18 100 -55 324 -212 554 -459 676 -148 74 -269
102 -431 103 -113 0 -142 -4 -220 -27 -49 -15 -119 -43 -155 -62 -72 -37 -209
-143 -256 -196 -41 -47 -84 -78 -105 -78 -11 0 -35 15 -54 33 l-35 32 230 356
230 356 72 -24 c265 -86 547 -63 743 61 39 24 72 45 75 45 3 1 270 -264 595
-589z m-2515 -190 l240 -120 -56 -88 c-274 -424 -287 -443 -299 -430 -7 7 -51
78 -98 158 -47 80 -119 203 -161 273 l-76 128 93 99 c50 55 98 99 105 100 6 0
120 -54 252 -120z m1582 44 c208 -53 393 -229 459 -434 30 -91 37 -254 15
-340 -55 -222 -226 -406 -440 -477 -69 -22 -98 -26 -201 -26 -103 0 -131 4
-200 26 -105 35 -170 73 -249 147 -133 125 -196 263 -204 445 -5 133 9 202 70
325 108 221 363 369 610 355 43 -2 106 -12 140 -21z m-1033 -330 c22 -27 23
-31 15 -123 -14 -149 -10 -307 10 -396 26 -121 101 -266 180 -351 111 -120
272 -217 464 -279 l82 -27 -2 -490 -3 -491 -142 -45 c-79 -25 -145 -43 -146
-41 -6 7 -561 940 -767 1291 -228 386 -222 362 -132 508 32 52 103 163 157
245 54 83 113 173 131 202 l34 52 48 -14 c26 -8 58 -27 71 -41z m3483 -6 c99
-37 173 -85 247 -159 125 -124 181 -255 189 -434 7 -178 -41 -323 -147 -448
-139 -165 -318 -244 -531 -234 -111 5 -161 18 -270 71 -95 46 -233 186 -282
286 -50 102 -71 187 -71 295 0 296 194 550 486 636 94 28 287 21 379 -13z
m-1297 -584 c55 -9 112 -22 126 -30 70 -36 103 -108 213 -474 l35 -115 -23
-25 c-132 -144 -1070 -1120 -1078 -1120 -5 0 -115 48 -244 107 l-234 108 0
482 0 482 43 11 c190 49 338 128 452 244 79 78 136 164 196 291 l48 102 183
-23 c101 -13 228 -31 283 -40z m-2639 -549 c555 -931 686 -1160 691 -1201 7
-55 -22 -118 -93 -206 -31 -38 -60 -71 -65 -74 -4 -2 -184 83 -399 191 -318
159 -390 199 -386 213 21 76 30 157 30 277 0 115 -4 154 -22 220 -36 125 -102
250 -193 359 l-80 97 23 37 c12 20 63 100 113 177 50 77 108 166 129 199 22
34 41 55 46 50 5 -5 98 -158 206 -339z m-917 -171 c111 -29 200 -82 291 -174
135 -134 190 -267 190 -460 0 -107 -17 -185 -59 -275 -136 -289 -477 -439
-786 -345 -213 66 -384 244 -440 460 -22 83 -22 243 0 325 94 355 448 561 804
469z m2396 -1091 c116 -28 202 -79 300 -178 99 -99 152 -190 180 -307 19 -81
19 -215 -1 -298 -42 -182 -178 -351 -350 -434 -108 -53 -188 -69 -319 -64
-179 8 -306 63 -433 189 -76 76 -123 149 -160 247 -33 90 -42 266 -18 360 25
94 61 168 117 243 164 216 422 307 684 242z"/>
</g>
</svg>
